<svg width="46" height="46" viewBox="0 0 46 46" fill="none" xmlns="http://www.w3.org/2000/svg"><g clip-path="url(#clip0)"><path d="M40.9961 31C40.9961 26.5817 37.4144 23 32.9961 23H29.9961V39H32.9961C37.4144 39 40.9961 35.4183 40.9961 31Z" fill="#CE82FF"/><path d="M4.99609 31C4.99609 26.5817 8.57782 23 12.9961 23H15.9961V39H12.9961C8.57782 39 4.99609 35.4183 4.99609 31Z" fill="#CE82FF"/><path fill-rule="evenodd" clip-rule="evenodd" d="M7.99609 23C7.99609 14.7157 14.7118 8 22.9961 8C31.2804 8 37.9961 14.7157 37.9961 23V29H32.9961V32H37.9961H40.9961V29V23C40.9961 13.0589 32.9372 5 22.9961 5C13.055 5 4.99609 13.0589 4.99609 23V29V32H7.99609H11.9961V29H7.99609V23Z" fill="#CE82FF"/><path d="M10.9961 25C10.9961 22.7909 12.787 21 14.9961 21C17.2052 21 18.9961 22.7909 18.9961 25V37C18.9961 39.2091 17.2052 41 14.9961 41C12.787 41 10.9961 39.2091 10.9961 37V25Z" fill="#9069CD"/><path d="M26.9961 25C26.9961 22.7909 28.787 21 30.9961 21C33.2052 21 34.9961 22.7909 34.9961 25V37C34.9961 39.2091 33.2052 41 30.9961 41C28.787 41 26.9961 39.2091 26.9961 37V25Z" fill="#9069CD"/></g><defs><clipPath id="clip0"><rect width="37.3484" height="36.2166" fill="white" transform="translate(4.32617 4.8916)"/></clipPath></defs></svg>